<svg xmlns="http://www.w3.org/2000/svg" xml:space="preserve" id="proyob" x="0" y="0" style="enable-background:new 0 0 50 50" version="1.1" viewBox="0 0 50 50"><style>.st0{fill:#fff}</style><path d="M25.3 34.7c1.2-.6 29.4-13.1.3-28.3 44.9 15.3 1.2 27.9-.3 28.3z" class="st0"/><path d="M20 44.6c.2.9-.1 1.7-.6 2.5-.3.5-.9.9-1.4 1.3-.2.2-.5.4-.7.5v-.1c.4-.5.7-.9 1.1-1.4s.6-1.1.7-1.9c0-.7-.3-1.2-.7-1.7-1-1.2-2.1-2.4-3-3.6-.6-.8-.8-1.7-.8-2.8.1-1 .5-1.9 1.2-2.5.8-.8 1.9-1.4 2.9-2.1 1.1-.7 1.7-1.7 1.6-3.2 0-.8-.3-1.6-.7-2.5-.7-1.6-1.5-3.3-2.7-4.8-.2-.3-.6-.6-1-.8-1.5-1-2.7-2.4-3-4.2-.2-.8-.1-1.6 0-2.5.3-2.4 1.3-4.5 2.6-6.6.7-1.1 1.5-2.2 2.8-3 .7-.5 1.6-.7 2.5-.5.5.1.9.4 1.3.7 1.3 1.1 2.2 2.7 3 4.3.6 1.2 1 2.5 1.3 3.7.4 1.9.3 3.6-.4 5.3-.5.8-1 1.7-1.9 2.3-.6.4-1.1.7-1.7 1.1-.4.4-.4.6-.3.9.3 1.3.6 2.6 1 3.9.3 1.2.4 2.5.3 3.7-.1 1.4-.7 2.7-1.7 3.7-.7.7-1.6 1.2-2.7 1.5-.4.2-.9.3-1.3.6-1 .6-1.1 1.5-.7 2.6.5 1.1 1.2 2.1 1.9 3.2.3.8.8 1.5 1.1 2.4z" class="st0"/><path d="M25 9.9c-.8-1.6-1.6-3.2-3-4.3-.4-.3-.8-.6-1.3-.7-.8-.2-1.7 0-2.5.5-1.2.8-2.1 1.9-2.8 3-1.2 2.1-2.3 4.2-2.6 6.6-.1.8-.2 1.6 0 2.5.3 1.9 1.4 3.2 3 4.2.4.2.8.5 1 .8 1.1 1.5 2 3.2 2.7 4.8.4.8.7 1.6.7 2.5.1 1.4-.5 2.5-1.6 3.2-1 .6-2.1 1.2-2.9 2.1-.7.6-1.1 1.4-1.2 2.5 0 1 .2 2 .8 2.8.9 1.2 2 2.4 3 3.6.4.5.7 1 .7 1.7-.1.7-.3 1.3-.7 1.9s-.7.9-1.1 1.4C7.4 45.6.3 36.2.3 25.3c0-13.8 11.2-25 25-25s24.9 11.2 25 25c0 13.8-11.2 25-25 25-2.9 0-5.6-.5-8.1-1.3.2-.1.5-.3.7-.5.5-.4 1.1-.8 1.4-1.3.5-.7.8-1.5.6-2.5-.2-.9-.7-1.6-1.1-2.4-.6-1.1-1.3-2.1-1.9-3.2-.4-1-.3-2 .7-2.6.4-.3.9-.4 1.3-.6 1-.3 2-.8 2.7-1.5 1-1 1.6-2.3 1.7-3.7.1-1.2 0-2.5-.3-3.7-.4-1.3-.7-2.6-1-3.9-.1-.3-.1-.5.2-.7.6-.4 1.1-.7 1.7-1.1.8-.5 1.3-1.4 1.9-2.3.7-1.7.8-3.5.4-5.3-.2-1.4-.6-2.6-1.2-3.8zm.6-3.5c29.1 15.2.9 27.7-.3 28.3 1.5-.4 45.2-13 .3-28.3z" style="fill:#0197f9"/></svg>